<svg width="314" height="232.5" viewBox="0 0 628 465" fill="none"
    xmlns="http://www.w3.org/2000/svg">
    <path d="M271.891 464.227C265.47 464.227 259.113 462.962 253.181 460.505C247.249 458.048 241.86 454.447 237.32 449.907C232.78 445.367 229.179 439.977 226.722 434.046C224.265 428.114 223 421.756 223 415.336V390.891C223 377.924 228.151 365.488 237.32 356.32C246.488 347.151 258.924 342 271.891 342V464.227Z" fill="#857D8F"/>
    <path d="M557 342C563.42 342 569.778 343.265 575.71 345.722C581.641 348.179 587.031 351.78 591.571 356.32C596.111 360.86 599.712 366.249 602.169 372.181C604.626 378.113 605.891 384.47 605.891 390.891V415.336C605.891 421.756 604.626 428.114 602.169 434.046C599.712 439.977 596.111 445.367 591.571 449.907C587.031 454.447 581.641 458.048 575.71 460.505C569.778 462.962 563.42 464.227 557 464.227V342Z" fill="#857D8F"/>
    <path d="M589 403H581.875C581.875 304.713 508.361 224.75 418 224.75C327.639 224.75 254.125 304.713 254.125 403H247C247 300.439 323.71 217 418 217C512.29 217 589 300.439 589 403Z" fill="#857D8F"/>
    <path id="note1" d="M153.547 263.473L153.549 263.47L149.904 261.953L134.528 255.452L129.016 253.123L128.593 254.19L121.189 272.884L142.026 281.704L142.136 281.803L140.731 285.114C140.539 285.416 140.375 285.736 140.241 286.069C139.258 288.553 141.116 291.023 142.872 291.718C144.628 292.414 146.849 290.965 147.833 288.481C148.803 286.031 147.855 282.919 146.143 282.167L146.145 282.164L142.501 280.647L130.034 275.8L137.157 257.815L136.101 257.397L128.975 275.389L127.434 274.79L134.588 256.728L134.776 256.807L149.43 263.01L149.539 263.109L148.135 266.42C147.943 266.722 147.779 267.042 147.645 267.375C146.662 269.859 148.519 272.329 150.276 273.024C152.032 273.72 154.253 272.271 155.237 269.787C156.207 267.337 155.259 264.225 153.547 263.473Z" fill="#3F3D56"/>
    <path id="note2" d="M225.667 309.367C218.103 305.043 219.617 295.552 219.617 295.552C219.426 289.387 214.333 290.26 214.333 290.26L212.479 290.683C211.618 290.283 210.669 290.108 209.722 290.173L206.902 290.648C213.324 292.156 212.796 297.528 212.796 297.528L213.696 303.809L196.87 297.021L198.802 292.466C199.069 292.046 199.297 291.602 199.482 291.139C200.848 287.69 198.268 284.259 195.829 283.293C193.39 282.327 190.305 284.34 188.939 287.789C187.591 291.192 188.908 295.514 191.285 296.558L191.283 296.562L196.345 298.67L196.382 298.551L225.667 309.367ZM217.123 298.331L217.662 304.343C215.757 301.67 214.862 298.408 215.137 295.137C215.092 293.973 214.699 292.85 214.01 291.911C215.07 292.591 215.922 293.55 216.471 294.683C217.02 295.816 217.246 297.078 217.123 298.331Z" fill="#3F3D56"/>
    <path id="note3" d="M97.3189 220.456L97.3209 220.452L92.2594 218.344L71.1049 210.12L76.4441 205.37C77.4886 203.978 79.0311 203.043 80.7488 202.762C82.4666 202.48 84.2267 202.874 85.6609 203.86L84.004 201.398C84.004 201.398 80.8892 197.274 76.5291 201.637C76.5291 201.637 71.1342 209.59 62.6603 207.563L91.6006 219.812L91.7525 219.95L89.8023 224.548C89.5353 224.968 89.3075 225.413 89.1218 225.875C87.7558 229.324 90.3359 232.755 92.7751 233.721C95.2143 234.688 98.2991 232.674 99.6653 229.225C101.013 225.823 99.6958 221.5 97.3189 220.456Z" fill="#3F3D56"/>
    <path id="note4" d="M174.766 193.541L172.816 198.14C172.549 198.56 172.321 199.004 172.135 199.467C170.769 202.916 173.349 206.347 175.788 207.313C178.228 208.279 181.313 206.266 182.679 202.817C184.026 199.414 182.709 195.092 180.332 194.048L180.334 194.044L175.273 191.936L157.958 185.205L167.851 160.225L166.385 159.644L156.488 184.633L154.347 183.801L164.282 158.714L164.544 158.825L184.897 167.439L185.049 167.577L183.099 172.175C182.832 172.596 182.604 173.04 182.418 173.503C181.052 176.952 183.632 180.383 186.072 181.349C188.511 182.315 191.596 180.302 192.962 176.853C194.309 173.45 192.992 169.128 190.616 168.083L190.618 168.079L185.556 165.972L164.871 157.227H164.87L164.199 156.943L156.544 153.707L145.674 181.155L174.614 193.404L174.766 193.541Z" fill="#3F3D56"/>
    <path id="note5" d="M83.0536 52.9718L83.0571 52.9648L74.3439 49.3362L37.9277 35.1799L47.1188 27.0027C47.1188 27.0027 53.2325 18.5199 62.985 24.4036L60.133 20.1645C60.133 20.1645 54.7708 13.0656 47.2652 20.5764C47.2652 20.5764 37.9783 34.2672 23.3909 30.7774L73.2098 51.8632L73.4713 52.1002L70.1142 60.0158C69.6547 60.7399 69.2626 61.5046 68.9429 62.3004C66.5912 68.2383 71.0328 74.1447 75.2316 75.8078C79.4305 77.4708 84.741 74.0052 87.0928 68.0673C89.4123 62.2104 87.1453 54.7697 83.0536 52.9718Z" fill="#3F3D56"/>
    <path id="note6" d="M109.794 171.885C91.7086 161.546 95.3276 138.855 95.3276 138.855C94.8726 124.114 82.6938 126.201 82.6938 126.201L78.2614 127.213C76.2024 126.257 73.9352 125.838 71.6706 125.994L64.9281 127.128C80.2811 130.736 79.0197 143.579 79.0197 143.579L81.1706 158.596L40.9416 142.367L45.5605 131.476C46.1989 130.471 46.7435 129.409 47.1875 128.303C50.4538 120.056 44.2848 111.853 38.4529 109.543C32.621 107.233 25.2454 112.047 21.9791 120.294C18.7573 128.428 21.9059 138.763 27.5889 141.26L27.5841 141.27L39.6859 146.309L39.776 146.024L109.794 171.885ZM89.3646 145.499L90.659 159.923C83.0634 149.84 84.6159 137.861 84.6159 137.861C84.5089 135.079 83.5704 132.393 81.9217 130.15C90.6469 135.371 89.3645 145.499 89.3645 145.499H89.3646Z" fill="#3F3D56"/>
</svg>
